<svg width="20" height="20" viewBox="0 0 20 20" fill="none" xmlns="http://www.w3.org/2000/svg">
<g clip-path="url(#clip0_3_93)">
<path d="M1.66666 10.17C1.66666 8.26293 1.66666 7.30942 2.09932 6.51897C2.53199 5.72853 3.32244 5.23795 4.90335 4.25679L6.57002 3.22241C8.24115 2.18526 9.07671 1.66669 9.99999 1.66669C10.9233 1.66669 11.7588 2.18526 13.43 3.22241L15.0966 4.25679C16.6775 5.23795 17.468 5.72853 17.9007 6.51897C18.3333 7.30942 18.3333 8.26293 18.3333 10.17V11.4375C18.3333 14.6882 18.3333 16.3136 17.357 17.3235C16.3807 18.3334 14.8094 18.3334 11.6667 18.3334H8.33332C5.19063 18.3334 3.61928 18.3334 2.64297 17.3235C1.66666 16.3136 1.66666 14.6882 1.66666 11.4375V10.17Z" stroke="white" stroke-width="1.5"/>
<path d="M10 12.5L10 15" stroke="white" stroke-width="1.5" stroke-linecap="round"/>
</g>
<defs>
<clipPath id="clip0_3_93">
<rect width="20" height="20" fill="white"/>
</clipPath>
</defs>
</svg>
